<!DOCTYPE svg PUBLIC "-//W3C//DTD SVG 1.1//EN" "http://www.w3.org/Graphics/SVG/1.1/DTD/svg11.dtd">
<!-- Uploaded to: SVG Repo, www.svgrepo.com, Transformed by: SVG Repo Mixer Tools -->
<svg height="97px" width="97px" version="1.1" id="Layer_1" xmlns="http://www.w3.org/2000/svg" xmlns:xlink="http://www.w3.org/1999/xlink" viewBox="0 0 297 297" xml:space="preserve" fill="#000000">
<g id="SVGRepo_bgCarrier" stroke-width="0"/>
<g id="SVGRepo_tracerCarrier" stroke-linecap="round" stroke-linejoin="round"/>
<g id="SVGRepo_iconCarrier"> <g> <g> <g> <g> <circle style="fill:#707070;" cx="148.5" cy="148.5" r="148.5"/> </g> </g> </g> <path style="fill:#707070;" d="M244.391,117.336l-57.989-7.503l-38.234-40.667L84.808,239.98l56.857,56.857 c2.267,0.103,4.544,0.163,6.837,0.163c75.197,0,137.329-55.894,147.141-128.401L244.391,117.336z"/> <path style="fill:#FFCD02;" d="M248.362,124.234c-2.17-6.679-7.803-11.646-14.699-12.965l-45.808-8.757l-22.482-40.858 c-3.535-6.424-10.293-10.245-17.64-9.944c-6.806,0.269-12.827,3.986-16.105,9.944l-22.482,40.858l-45.807,8.757 c-6.897,1.318-12.53,6.286-14.7,12.965c-2.17,6.678-0.532,14.008,4.272,19.128l31.911,34.009l-5.827,46.271 c-0.877,6.967,2.106,13.858,7.786,17.985c3.35,2.434,7.322,3.679,11.323,3.679c2.784,0,5.582-0.604,8.19-1.829l42.205-19.841 l42.207,19.841c2.608,1.227,5.405,1.829,8.189,1.829c4,0,7.974-1.245,11.323-3.679c5.68-4.127,8.663-11.019,7.786-17.984 l-5.827-46.271l31.91-34.009C248.894,138.242,250.532,130.912,248.362,124.234z M195.252,163.257 c-3.938,4.196-5.783,9.877-5.063,15.583l5.366,42.606l-38.864-18.271c-2.642-1.24-5.584-1.857-8.523-1.806V77.231l0.333-0.604 l20.703,37.623c2.773,5.04,7.604,8.55,13.256,9.631l42.178,8.063L195.252,163.257z"/> </g> </g>
</svg>