<?xml version="1.0" encoding="iso-8859-1"?>
<!-- Uploaded to: SVG Repo, www.svgrepo.com, Generator: SVG Repo Mixer Tools -->
<svg height="800px" width="800px" version="1.1" id="Layer_1" xmlns="http://www.w3.org/2000/svg" xmlns:xlink="http://www.w3.org/1999/xlink" 
	 viewBox="0 0 512 512" xml:space="preserve">
<ellipse style="fill:#9EA7DB;" cx="256" cy="256" rx="256" ry="256"/>
<path style="fill:#8C95C9;" d="M511.735,267.425C505.758,403.505,393.554,512,256,512c-2.283,0-4.557-0.035-6.826-0.093
	L123.508,386.242c-18.774-61.812,75.753-54.965,88.69-53.355l25.821,25.821l13.756-26.341l-70.979-70.979l-14.617-122.764
	c-7.948-9.088-9.512-23.41,5.592-40.196l132.815,132.815l42.945-82.23l5.592-40.196L511.735,267.425z"/>
<path style="fill:#FF8C8A;" d="M256.678,199.103c0-37.861-30.696-68.555-68.557-68.555c-37.862,0-68.556,30.694-68.556,68.555
	c0,91.33,103.973,132.191,137.113,189.772c33.14-57.581,137.113-98.441,137.113-189.772c0-37.861-30.695-68.555-68.556-68.555
	C287.373,130.548,256.678,161.242,256.678,199.103z"/>
<path style="fill:#D9D9DD;" d="M341.585,98.428c6.863,9.314,8.594,47.852-9.782,51.193c0.571,7.011,8.803,17.119,16.303,17.282
	C356.991,165.108,386.582,132.663,341.585,98.428z"/>
<path style="fill:#EAEAED;" d="M341.585,98.428c6.863,9.314,8.594,47.852-9.782,51.193c0.193,2.374,1.265,5.103,2.89,7.681
	c7.069-2.666,17.101-8.695,19.768-21.831C358.699,114.601,341.585,98.428,341.585,98.428z"/>
<path style="fill:#D9D9DD;" d="M171.771,98.428c-6.862,9.314-8.594,47.852,9.783,51.193c-0.571,7.011-8.803,17.119-16.303,17.282
	C156.365,165.108,126.774,132.663,171.771,98.428z"/>
<path style="fill:#EAEAED;" d="M171.771,98.428c-6.862,9.314-8.594,47.852,9.783,51.193c-0.193,2.374-1.266,5.103-2.891,7.681
	c-7.068-2.666-17.1-8.695-19.768-21.831C154.657,114.601,171.771,98.428,171.771,98.428z"/>
<path style="fill:#FA7876;" d="M250.91,379.968c2.096,2.931,4.034,5.895,5.767,8.907c33.14-57.581,137.113-98.441,137.113-189.772
	c0-18.495-7.326-35.278-19.233-47.609c8.041,11.232,12.775,24.993,12.775,39.859C387.332,282.069,284.766,322.995,250.91,379.968z"
	/>
<path style="fill:#EAEAED;" d="M362.18,280.433c22.694,1.599,74.465,9.156,53.877,44.923
	c-16.695,24.629-82.84,22.598-146.392,18.699c-61.71-3.788-123.616-9.178-135.313,11.366c-22.284,39.14,86.371,53.044,86.681,53.084
	l-1.547,11.872c-0.362-0.047-128.857-13.444-98.732-67.691c11.692-29.697,84.268-26.2,149.68-22.186
	c60.162,3.692,120.086,7.368,132.937-11.591c17.344-25.587-47.744-26.89-51.216-26.942l0.161-0.176l0.042-0.043l0.445-0.486
	l0.162-0.176l0.162-0.176v-0.002l0.162-0.177l0.645-0.708l0.161-0.177l0.16-0.178l0.019-0.019l0.141-0.159l0.161-0.178l0.078-0.086
	l0.081-0.092l0.16-0.177l0.638-0.715l0.158-0.179l0.097-0.107l0.062-0.071l0.158-0.179l0.156-0.174l0.003-0.005l0.631-0.718
	l0.114-0.129l0.043-0.051l0.157-0.179l0.157-0.179l0.781-0.904l0.156-0.181l0.155-0.181l0.034-0.037l0.121-0.144l0.155-0.181
	l0.09-0.106l0.064-0.077l0.155-0.181l0.148-0.173l0.006-0.009l0.153-0.181l0.462-0.546l0.109-0.128l0.045-0.055l0.153-0.182
	l0.152-0.185l0.011-0.011l0.141-0.171l0.153-0.183l0.068-0.08l0.085-0.103l0.152-0.184l0.123-0.149l0.027-0.034l0.152-0.184
	l0.303-0.368l0.151-0.183l0.085-0.103l0.065-0.081l0.151-0.186L362.18,280.433z"/>
<polygon style="fill:#FF8C8A;" points="212.753,413.217 215.606,378.679 273.65,427.525 198.88,444.975 "/>
<polygon style="fill:#FA7876;" points="267.892,422.68 273.65,427.525 198.88,444.975 201.89,438.083 "/>
</svg>