<svg width="14" height="14" viewBox="0 0 14 14" fill="none" xmlns="http://www.w3.org/2000/svg">
<line x1="12.7942" y1="1" x2="12.7942" y2="5.94118" stroke="#BB2830"/>
<line x1="8.05887" y1="1.20593" x2="13.0001" y2="1.20593" stroke="#BB2830"/>
<line y1="-0.5" x2="4.94118" y2="-0.5" transform="matrix(0 -1 -1 0 12.2942 13)" stroke="#BB2830"/>
<line y1="-0.5" x2="4.94118" y2="-0.5" transform="matrix(1 0 0 -1 8.05887 12.2941)" stroke="#BB2830"/>
<path d="M4.91713 6.3289C4.74139 6.50463 4.74139 6.78956 4.91713 6.96529L7.78091 9.82908C7.95665 10.0048 8.24157 10.0048 8.41731 9.82908C8.59304 9.65334 8.59304 9.36842 8.41731 9.19268L5.87172 6.64709L8.41731 4.10151C8.59304 3.92577 8.59304 3.64085 8.41731 3.46511C8.24157 3.28938 7.95665 3.28938 7.78091 3.46511L4.91713 6.3289ZM6.64709 6.19709L5.23533 6.19709L5.23533 7.09709L6.64709 7.09709L6.64709 6.19709Z" fill="#BB2830"/>
<line y1="-0.5" x2="4.94118" y2="-0.5" transform="matrix(0 1 1 0 1.7059 1)" stroke="#BB2830"/>
<line y1="-0.5" x2="4.94118" y2="-0.5" transform="matrix(-1 0 0 1 5.94122 1.70593)" stroke="#BB2830"/>
<line x1="1.2059" y1="13" x2="1.2059" y2="8.05882" stroke="#BB2830"/>
<line x1="5.94122" y1="12.7941" x2="1.00004" y2="12.7941" stroke="#BB2830"/>
</svg>
